<svg width="254" height="97" viewBox="0 0 254 97" fill="none" xmlns="http://www.w3.org/2000/svg">
<path d="M43.3493 22.2671L26.4746 33.3049L38.1422 42.6649L55.1559 32.1406L43.3493 22.2671ZM26.4746 52.0259L43.3493 63.0628L55.1563 53.1902L38.1422 42.6649L26.4746 52.0259ZM55.1563 53.1898L66.9638 63.0628L83.8381 52.0263L72.17 42.6654L55.1563 53.1902V53.1898ZM83.8381 33.3049L66.9643 22.2671L55.1563 32.1401L72.1705 42.6649L83.8381 33.3049V33.3049Z" fill="#8C8C8C"/>
<path d="M55.1916 55.314L43.3495 65.1578L38.2832 61.8436V65.559L55.1916 75.7177L72.1005 65.5594V61.8441L67.0342 65.1582L55.1921 55.314H55.1916Z" fill="#8C8C8C"/>
<path d="M98.9378 38.438H100.052C102.682 38.438 106.294 38.7501 106.294 47.8873C106.294 57.6047 102.638 57.9173 100.052 57.9173H98.9378V38.438V38.438ZM92.4283 63.043H100.23C102.503 63.043 105.713 63.043 108.344 60.9925C111.554 58.5403 113.204 53.5481 113.204 47.9763C113.204 33.3557 103.974 33.3112 99.427 33.3112H92.4277V63.043H92.4283ZM115.445 41.0676V63.043H121.552V53.5493C121.552 51.8548 121.552 46.7736 126.054 46.7736C126.278 46.7736 126.543 46.7736 127.078 46.8632V40.8896C126.767 40.8001 126.456 40.755 126.009 40.755C122.443 40.755 121.373 44.5 120.838 46.3719V41.0676H115.444H115.445ZM136.87 44.8566C138.744 44.8566 139.456 46.3719 139.456 52.0339C139.456 57.9173 138.654 59.2102 136.87 59.2102C135.043 59.2102 134.241 57.8722 134.241 52.0334C134.241 46.6401 134.865 44.8566 136.827 44.8566H136.87V44.8566ZM136.87 40.5776C130.318 40.5776 127.911 45.1687 127.911 52.0339C127.911 59.1206 130.495 63.4886 136.827 63.4886C143.246 63.4886 145.787 59.0761 145.787 52.0334C145.787 45.1687 143.38 40.577 136.87 40.577V40.5776ZM153.618 49.8933C153.618 47.9323 153.618 44.8126 156.381 44.8126C158.743 44.8126 158.922 47.8878 158.922 51.7658C158.922 56.402 158.7 59.1206 156.202 59.1206C153.617 59.1211 153.617 57.2481 153.617 54.0833V49.8933H153.618ZM147.598 41.0676V70.4868H153.617V61.4392C154.285 62.1513 155.399 63.354 157.807 63.354C164.806 63.354 165.253 54.8849 165.253 51.7652C165.253 48.0653 164.54 44.6324 162.4 42.4489C161.33 41.3792 159.68 40.7544 158.208 40.7544C155.221 40.7544 154.017 42.9384 153.259 44.3659V41.0671H147.598V41.0676ZM173.09 48.8241C173.09 47.7098 173.09 46.5956 173.805 45.7478C174.251 45.1687 174.964 44.8121 175.766 44.8121C177.505 44.8121 178.441 46.2835 178.441 52.0779C178.441 57.7393 177.595 59.2541 175.677 59.2541C173.09 59.2541 173.09 56.4014 173.09 53.9047V48.8241ZM167.072 33.3112V63.0436H170.683C171.173 61.4837 171.397 61.0387 171.843 60.1909C172.377 61.3052 173.403 63.4886 176.925 63.4886C178.084 63.4886 179.288 63.2661 180.492 62.6431C184.505 60.5481 184.772 53.9504 184.772 51.8999C184.772 46.5961 183.078 40.7556 177.682 40.7556C175.052 40.7556 173.85 42.183 173.09 43.1193V33.3118H167.072V33.3112ZM195.267 44.8566C197.137 44.8566 197.853 46.3719 197.853 52.0339C197.853 57.9173 197.05 59.2102 195.267 59.2102C193.439 59.2102 192.635 57.8722 192.635 52.0334C192.635 46.6401 193.26 44.8566 195.222 44.8566H195.268H195.267ZM195.267 40.5776C188.713 40.5776 186.305 45.1687 186.305 52.0339C186.305 59.1206 188.892 63.4886 195.222 63.4886C201.642 63.4886 204.183 59.0761 204.183 52.0334C204.183 45.1687 201.775 40.577 195.267 40.577" fill="#8C8C8C"/>
<path d="M203.945 41.0676L209.608 51.8108L203.1 63.043H208.403L212.104 56.4476L215.314 63.043H221.957L215.403 50.7405L221.064 41.0676H215.761L212.951 46.1488L210.589 41.0676H203.945V41.0676Z" fill="#8C8C8C"/>
</svg>
