<svg width="145" height="50" viewBox="0 0 145 50" fill="none" xmlns="http://www.w3.org/2000/svg">
<g clip-path="url(#clip0_898_2787)">
<path d="M22.3201 24.2967H28.5274V33.1066C26.5906 33.7355 24.1451 34.0803 21.6031 34.0803C11.3007 34.0803 5.24558 25.1652 5.24558 16.4584C5.24558 7.9189 10.7225 1.92895 18.3636 1.92895C23.1987 1.92895 26.0121 3.5842 28.5291 5.88991V8.76426L33.2486 3.9951C30.2635 1.95424 25.941 0.0146484 19.7626 0.0146484C6.19952 0.0146484 0 9.81995 0 17.8781C0 29.348 8.26737 36.2576 18.6567 36.2576C23.6942 36.2576 28.167 35.4805 33.3336 34.0278V24.9257C33.3336 24.4602 33.536 24.1409 33.8385 23.8604L35.4689 22.213H24.3976L22.3201 24.2967V24.2967Z" fill="#8C8C8C"/>
<path d="M50.1262 12.3232C42.3195 12.3232 37.4824 18.0877 37.4824 24.2064C37.4824 29.4877 41.3792 35.7582 49.2745 35.7582C56.8693 35.7582 61.529 29.9824 61.529 23.7566C61.529 17.9573 56.9752 12.3254 50.1262 12.3254V12.3232V12.3232ZM48.831 14.0039C54.335 14.0039 56.7862 21.2501 56.7862 26.4185C56.7862 34.1048 51.08 34.2567 50.3978 34.2567C47.7866 34.2567 45.9615 32.662 44.5954 30.5703C43.3928 28.6426 42.2173 25.0612 42.2173 21.5617C42.2173 18.0759 43.3464 16.3738 45.1234 15.1217C46.5765 14.183 47.937 14.0039 48.8291 14.0039H48.831Z" fill="#8C8C8C"/>
<path d="M101.158 12.3213C94.3394 12.3213 90.6509 16.6835 90.6509 21.5539C90.6509 25.2617 93.2794 29.4447 98.7023 29.4447H100.074C100.074 29.4447 99.7007 30.362 99.6987 31.248C99.6987 32.5549 100.163 33.2888 101.15 34.4183C91.8185 34.9928 88.0684 38.7961 88.0684 42.8837C88.0684 46.4632 91.4603 49.986 98.5885 49.986C107.027 49.986 111.398 45.2517 111.398 40.6054C111.398 37.3299 109.783 35.5344 105.694 32.438C104.491 31.4936 104.258 30.892 104.258 30.1851C104.258 29.1725 104.857 28.5024 105.077 28.2494C105.464 27.8365 106.135 27.3653 106.386 27.1394C107.76 25.9632 109.7 24.2224 109.7 20.748C109.7 18.3644 108.719 16.3138 106.484 14.3937H109.213L111.263 12.3217H101.158V12.3213ZM99.2769 13.8714C100.514 13.8714 101.547 14.3135 102.638 15.2307C103.848 16.333 105.781 19.2949 105.781 22.9599C105.781 26.9151 102.74 27.9978 101.094 27.9978C100.289 27.9978 99.3234 27.77 98.5061 27.2052C96.6907 26.0156 94.8887 22.8489 94.8887 19.0807C94.8887 15.6805 96.8929 13.8714 99.2769 13.8714ZM101.977 35.9198C102.497 35.9198 102.871 35.9628 102.871 35.9628C102.871 35.9628 104.099 36.8489 104.956 37.5108C106.953 39.1057 108.197 40.3248 108.197 42.4963C108.197 45.4817 105.457 47.8224 101.019 47.8224C96.1472 47.8224 92.4239 45.5303 92.4239 41.7877C92.4239 38.6872 94.9753 36.0189 101.977 35.9198Z" fill="#8C8C8C"/>
<path d="M112.741 35.0744H122.101L123.527 33.6336L120.842 33.2947C120.12 33.2051 119.69 32.5742 119.69 31.9627V3.39253C119.69 2.82973 119.948 2.54151 120.137 2.35826L121.825 0.652344H113.843L111.766 2.75164H114.868V32.3461C114.868 32.7668 114.737 33.053 114.456 33.3471L112.741 35.0744V35.0744Z" fill="#8C8C8C"/>
<path d="M134.782 12.3232C129.556 12.3232 124.004 16.3485 124.004 23.5753C124.004 29.5438 127.987 35.7582 135.43 35.7582C137.286 35.7582 138.814 35.5169 140.246 34.8528C141.782 34.1381 143.26 32.9775 144.339 31.5189C142.302 32.5568 140.641 33.2384 138.434 33.2384C134.241 33.2384 130.197 30.181 128.783 24.5609L143.597 18.5103C142.741 15.4276 140.328 12.3232 134.784 12.3232H134.782ZM133.815 13.9766C136.619 13.9766 138.646 16.3076 138.646 18.1323C138.646 18.7224 138.28 19.034 137.555 19.3222L128.45 23.0436C128.45 23.0436 128.203 21.885 128.203 20.6328C128.203 15.3807 131.961 13.9766 133.815 13.9766V13.9766Z" fill="#8C8C8C"/>
<path d="M76.6165 12.3232C68.8097 12.3232 63.9727 18.0877 63.9727 24.2064C63.9727 29.4877 67.8695 35.7582 75.7647 35.7582C83.3595 35.7582 88.0193 29.9824 88.0193 23.7566C88.0193 17.9573 83.4655 12.3254 76.6165 12.3254V12.3232V12.3232ZM75.3213 14.0039C80.8254 14.0039 83.2765 21.2501 83.2765 26.4185C83.2765 34.1048 77.5703 34.2567 76.8881 34.2567C74.2768 34.2567 72.4518 32.662 71.0857 30.5703C69.8832 28.6426 68.7076 25.0612 68.7076 21.5617C68.7076 18.0759 69.8367 16.3738 71.6137 15.1217C73.0667 14.183 74.4273 14.0039 75.3194 14.0039H75.3213Z" fill="#8C8C8C"/>
</g>
<defs>
<clipPath id="clip0_898_2787">
<rect width="144.34" height="50" fill="white"/>
</clipPath>
</defs>
</svg>
