<svg width="189" height="47" viewBox="0 0 189 47" fill="none" xmlns="http://www.w3.org/2000/svg">
<path fill-rule="evenodd" clip-rule="evenodd" d="M60.4648 37.0072L62.8236 31.6207C65.3713 33.493 68.7657 34.4663 72.1148 34.4663C74.5869 34.4663 76.1518 33.5302 76.1518 32.1111C76.114 28.1437 61.3418 31.2493 61.2284 21.301C61.1906 16.2488 65.7568 12.3556 72.2282 12.3556C76.0762 12.3556 79.9167 13.2918 82.661 15.4241L80.4535 20.922C77.9436 19.347 74.8213 18.2251 71.8502 18.2251C69.8317 18.2251 68.5011 19.1612 68.5011 20.3574C68.5389 24.2505 83.4246 22.1182 83.5758 31.6207C83.5758 36.7844 79.1229 40.4175 72.7272 40.4175C68.04 40.41 63.7383 39.3253 60.4648 37.0072V37.0072ZM151.041 29.6742C149.862 31.695 147.654 33.077 145.099 33.077C141.327 33.077 138.287 30.0828 138.287 26.3828C138.287 22.6829 141.334 19.6887 145.099 19.6887C147.647 19.6887 149.862 21.0706 151.041 23.0915L157.55 19.5401C155.116 15.2755 150.429 12.3556 145.099 12.3556C137.214 12.3556 130.818 18.6411 130.818 26.3903C130.818 34.1394 137.214 40.4249 145.099 40.4249C150.467 40.4249 155.116 37.5422 157.55 33.2404L151.041 29.6742ZM86.8492 0.713379H94.9989V39.89H86.8492V0.713379ZM160.748 0.713379V39.89H168.898V28.1362L178.567 39.89H189L176.7 25.9296L188.085 12.9054H178.106L168.89 23.7156V0.713379H160.748Z" fill="#8C8C8C"/>
<path d="M119.214 29.7484C118.035 31.6578 115.6 33.0769 112.856 33.0769C109.084 33.0769 106.044 30.0827 106.044 26.3828C106.044 22.6828 109.091 19.6886 112.856 19.6886C115.6 19.6886 118.035 21.182 119.214 23.1286V29.7484ZM119.214 12.9128V16.0927C117.883 13.8861 114.572 12.3481 111.102 12.3481C103.943 12.3481 98.3105 18.5593 98.3105 26.3456C98.3105 34.1319 103.943 40.4174 111.102 40.4174C114.565 40.4174 117.876 38.8869 119.214 36.6728V39.8527H127.364V12.9128H119.214Z" fill="#8C8C8C"/>
<path fill-rule="evenodd" clip-rule="evenodd" d="M10.0929 29.7107C10.0929 32.4449 7.84757 34.6515 5.06549 34.6515C2.28341 34.6515 0.0380859 32.4374 0.0380859 29.7107C0.0380859 26.9841 2.28341 24.77 5.06549 24.77H10.0929V29.7107ZM12.6028 29.7107C12.6028 26.9766 14.8481 24.77 17.6302 24.77C20.4123 24.77 22.6576 26.9766 22.6576 29.7107V42.0588C22.6576 44.7929 20.4123 46.9995 17.6302 46.9995C14.8481 46.9995 12.6028 44.7929 12.6028 42.0588V29.7107Z" fill="#8C8C8C"/>
<path fill-rule="evenodd" clip-rule="evenodd" d="M17.6299 9.88144C14.8478 9.88144 12.6025 7.67483 12.6025 4.94072C12.6025 2.20661 14.8478 0 17.6299 0C20.412 0 22.6573 2.20661 22.6573 4.94072V9.88144H17.6299ZM17.6299 12.3852C20.412 12.3852 22.6573 14.5918 22.6573 17.326C22.6573 20.0601 20.412 22.2667 17.6299 22.2667H5.0274C2.24532 22.2667 0 20.0526 0 17.326C0 14.5993 2.24532 12.3852 5.0274 12.3852H17.6299Z" fill="#8C8C8C"/>
<path fill-rule="evenodd" clip-rule="evenodd" d="M37.7698 17.326C37.7698 14.5918 40.0151 12.3852 42.7972 12.3852C45.5793 12.3852 47.8246 14.5918 47.8246 17.326C47.8246 20.0601 45.5793 22.2667 42.7972 22.2667H37.7698V17.326ZM35.2599 17.326C35.2599 20.0601 33.0146 22.2667 30.2325 22.2667C27.4504 22.2667 25.2051 20.0601 25.2051 17.326V4.94072C25.2051 2.20661 27.4504 0 30.2325 0C33.0146 0 35.2599 2.20661 35.2599 4.94072V17.326Z" fill="#8C8C8C"/>
<path fill-rule="evenodd" clip-rule="evenodd" d="M30.2325 37.1181C33.0146 37.1181 35.2599 39.3247 35.2599 42.0588C35.2599 44.7929 33.0146 46.9995 30.2325 46.9995C27.4504 46.9995 25.2051 44.7929 25.2051 42.0588V37.1181H30.2325ZM30.2325 34.6515C27.4504 34.6515 25.2051 32.4449 25.2051 29.7107C25.2051 26.9766 27.4504 24.77 30.2325 24.77H42.835C45.6171 24.77 47.8624 26.9766 47.8624 29.7107C47.8624 32.4449 45.6171 34.6515 42.835 34.6515H30.2325Z" fill="#8C8C8C"/>
</svg>
