<svg width="133" height="59" viewBox="0 0 133 59" fill="none" xmlns="http://www.w3.org/2000/svg">
<mask id="mask0_898_2796" style="mask-type:alpha" maskUnits="userSpaceOnUse" x="0" y="0" width="133" height="59">
<path d="M0.0175781 0.214355H132.907V58.995H0.0175781V0.214355Z" fill="white"/>
</mask>
<g mask="url(#mask0_898_2796)">
<path fill-rule="evenodd" clip-rule="evenodd" d="M13.8865 26.6554C11.0226 25.5258 9.45311 24.6472 9.45311 23.2666C9.45311 22.0949 10.3556 21.4256 11.9642 21.4256C14.9067 21.4256 17.9274 22.639 20.0069 23.7266L21.1839 15.987C19.5361 15.1501 16.162 13.7695 11.4934 13.7695C8.19785 13.7695 5.45134 14.6898 3.48989 16.4052C1.44957 18.2041 0.390279 20.7981 0.390279 23.9359C0.390279 29.6256 3.64672 32.0523 8.94318 34.1022C12.3565 35.399 13.4943 36.3197 13.4943 37.742C13.4943 39.1226 12.3956 39.9174 10.3947 39.9174C7.92302 39.9174 3.84298 38.6206 1.17504 36.9472L-0.00195312 44.7706C2.27347 46.1512 6.51063 47.5736 10.9049 47.5736C14.3965 47.5736 17.2998 46.695 19.2616 45.0216C21.4584 43.1807 22.5963 40.4615 22.5963 36.9472C22.5963 31.1317 19.2616 28.7053 13.8865 26.6554V26.6554ZM41.7568 22.0949L42.9338 14.397H36.7202V5.05216L28.3659 6.51812L27.1595 14.397L24.2211 14.9054L23.1212 22.0949H27.1474V37.1982C27.1474 41.1308 28.089 43.8503 30.0113 45.5237C31.62 46.9043 33.9345 47.5736 37.191 47.5736C39.7018 47.5736 41.2319 47.1136 42.2912 46.8205V38.6623C41.7027 38.8299 40.3688 39.1226 39.4664 39.1226C37.5441 39.1226 36.7202 38.0768 36.7202 35.6921V22.0949H41.7568ZM60.4168 13.9474C57.6706 13.9474 55.4735 15.4849 54.6104 18.2461L54.0219 14.397H45.5085V46.946H55.2381V25.8185C56.4545 24.2286 58.1805 23.6538 60.5345 23.6538C61.0448 23.6538 61.5938 23.6538 62.2609 23.7793V14.1984C61.5938 14.0312 61.0053 13.9474 60.4168 13.9474ZM69.5191 11.1755C72.3439 11.1755 74.6193 8.70734 74.6193 5.69509C74.6193 2.64079 72.3439 0.214355 69.5191 0.214355C66.6549 0.214355 64.3795 2.64079 64.3795 5.69509C64.3795 8.70734 66.6549 11.1755 69.5191 11.1755V11.1755ZM64.6149 14.397H74.3839V46.946H64.6149V14.397V14.397ZM102.068 17.3255C100.341 14.9408 97.9481 13.7695 94.888 13.7695C92.0632 13.7695 89.5915 15.0246 87.2767 17.6603L86.7667 14.397H78.2138V58.995L87.9437 57.2799V46.8205C89.4344 47.3225 90.9645 47.5736 92.3377 47.5736C94.7703 47.5736 98.3012 46.9043 101.047 43.7248C103.676 40.6705 105.01 35.9431 105.01 29.7093C105.01 24.1869 104.029 20.0033 102.068 17.3255ZM93.9855 37.4072C93.2007 38.9971 91.9846 39.834 90.5722 39.834C89.5915 39.834 88.7282 39.6247 87.9437 39.2064V23.7266C89.5915 21.8859 91.0822 21.6767 91.6315 21.6767C94.1032 21.6767 95.3193 24.5217 95.3193 30.0859C95.3193 33.2654 94.888 35.7338 93.9855 37.4072V37.4072ZM132.905 30.3786C132.905 25.191 131.845 21.0908 129.766 18.2041C127.647 15.2756 124.47 13.7695 120.429 13.7695C112.15 13.7695 107.011 20.296 107.011 30.7552C107.011 36.6124 108.384 41.0053 111.091 43.8083C113.524 46.3185 117.015 47.5736 121.527 47.5736C125.686 47.5736 129.531 46.5278 131.963 44.8123L130.904 37.7003C128.51 39.0809 125.725 39.834 122.586 39.834C120.703 39.834 119.409 39.4154 118.467 38.5368C117.447 37.6165 116.858 36.1104 116.662 33.9767H132.787C132.826 33.4747 132.905 31.1317 132.905 30.3786V30.3786ZM116.584 27.6174C116.858 22.9735 118.035 20.7981 120.272 20.7981C122.469 20.7981 123.607 23.0155 123.763 27.6174H116.584V27.6174Z" fill="#8C8C8C"/>
</g>
</svg>
