<svg width="76" height="93" viewBox="0 0 76 93" fill="none" xmlns="http://www.w3.org/2000/svg">
<g clip-path="url(#clip0_898_2757)">
<path fill-rule="evenodd" clip-rule="evenodd" d="M24.8531 54.2199C24.8527 52.9384 25.0372 51.6637 25.4009 50.4358H50.5916C51.1349 52.2606 51.2818 54.1822 51.0223 56.0695C50.7629 57.9568 50.1033 59.7656 49.0883 61.3726C48.0733 62.9796 46.7269 64.3471 45.1407 65.382C43.5545 66.4169 41.7658 67.0949 39.8964 67.3697C38.027 67.6446 36.1208 67.5098 34.3077 66.9747C32.4946 66.4396 30.8171 65.5167 29.3895 64.2688C27.9619 63.0209 26.8178 61.4773 26.0349 59.7432C25.2521 58.0092 24.849 56.1253 24.8531 54.2199V54.2199ZM32.4546 29.1989C31.1639 28.041 30.1434 27.2009 29.9258 24.7942H29.7832C29.4623 24.7954 29.1467 24.7119 28.8677 24.552C28.4069 24.2637 28.0535 23.83 27.8622 23.3183C27.3969 22.236 27.0292 19.4055 28.1998 18.5881L27.9822 18.4443V18.1264C27.9372 17.5588 27.9297 16.8701 27.9147 16.1435C27.9147 13.4795 27.8171 10.2478 25.6635 9.59689L24.763 9.31686L25.3634 8.56003C26.9383 6.55432 28.7247 4.72719 30.6912 3.11081C32.458 1.58828 34.5812 0.546222 36.8594 0.0834639C37.9221 -0.0894707 39.0093 -0.0274299 40.0458 0.265292C41.0824 0.558014 42.0435 1.07442 42.8626 1.77878C43.451 2.26505 43.989 2.81024 44.4684 3.40597C45.4214 3.51008 46.3418 3.81605 47.1695 4.30384C47.9971 4.79163 48.7132 5.45024 49.2709 6.23654C49.9787 7.19427 50.5076 8.27397 50.8318 9.42282C51.1701 10.5916 51.3121 11.8093 51.252 13.0254C51.2023 15.2372 50.3165 17.3463 48.7757 18.9211C49.0369 18.9315 49.2929 18.9986 49.5261 19.1179C50.4115 19.5947 50.4416 20.6316 50.2089 21.5095C49.9763 22.2663 49.6837 23.0837 49.406 23.78C49.0683 24.7412 48.5806 24.9228 47.6351 24.8169C47.5825 27.1858 46.502 27.8442 45.0387 29.2292C45.0987 32.7939 32.387 32.3777 32.4621 29.2292L32.4546 29.1989ZM31.7942 32.1355L35.5837 42.156L37.5197 36.6916L36.5893 35.6699C35.8839 34.633 36.124 33.4599 37.4297 33.248C37.8968 33.2136 38.3658 33.2136 38.8329 33.248C39.3489 33.211 39.8672 33.2313 40.3788 33.3086C41.5869 33.5735 41.7145 34.7541 41.1292 35.6926L40.1912 36.7143L42.0221 42.156L45.4439 32.1355C47.9127 34.406 55.1991 34.8298 57.938 36.3586C61.69 38.4853 61.5999 42.5949 62.4404 46.4018H14.8128C15.6307 42.6176 15.5632 38.455 19.3152 36.3586C22.6619 34.4817 29.0703 34.6255 31.8092 32.1355H31.7942ZM8.63705 29.5168C7.99171 28.4875 6.79858 27.0949 6.79858 25.8916C6.81306 25.5008 6.94395 25.1236 7.17419 24.809C7.40443 24.4945 7.72332 24.2572 8.08926 24.1281C8.02923 23.114 7.9842 22.0847 7.9842 21.063C7.9842 20.4575 7.9842 19.8444 7.9842 19.2465C8.04251 18.8785 8.1329 18.5163 8.25434 18.1643C8.72074 16.6281 9.74076 15.3239 11.1134 14.5088C11.5991 14.1992 12.1176 13.9453 12.6592 13.7519C13.6422 13.3886 13.1694 11.7236 14.2425 11.7009C16.7563 11.6328 20.891 13.9714 22.4968 15.7197C23.5247 16.8654 24.1106 18.3452 24.1477 19.8899L24.0126 24.3325C24.2506 24.3816 24.4724 24.4907 24.6574 24.6495C24.8424 24.8082 24.9845 25.0116 25.0707 25.2407C25.4159 26.6484 23.9751 28.3891 23.2998 29.5092C23.0221 29.9709 22.3918 30.9018 21.799 31.7798C20.4262 32.0876 19.0957 32.5629 17.8369 33.195L17.6343 33.301C13.1319 35.8137 12.4641 39.719 11.7962 43.6772C11.6987 44.26 11.6011 44.8427 11.4585 45.5012C11.3829 45.7953 11.345 46.098 11.346 46.4018H0C0 36.2754 7.66904 39.4919 11.331 34.406C11.5111 34.1411 11.5936 33.9973 11.5936 33.8762C11.5936 33.7551 8.87717 29.9331 8.63705 29.5168ZM67.363 29.5168C68.0008 28.4875 69.2014 27.0949 69.2014 25.8916C69.1869 25.5008 69.056 25.1236 68.8258 24.809C68.5956 24.4945 68.2767 24.2572 67.9107 24.1281C67.9708 23.114 68.0083 22.0847 68.0083 21.063C68.0083 20.4575 68.0083 19.8444 68.0083 19.2465C67.9588 18.8802 67.881 18.5184 67.7757 18.1643C67.3041 16.6309 66.2854 15.3284 64.9167 14.5088C64.4275 14.2006 63.9067 13.9468 63.3634 13.7519C62.3803 13.3886 62.8606 11.7236 61.78 11.7009C59.2662 11.6328 55.1315 13.9714 53.5257 15.7197C52.4965 16.8639 51.9127 18.3452 51.8823 19.8899L51.9799 24.3325C51.7424 24.3829 51.5213 24.4925 51.3365 24.6511C51.1517 24.8097 51.0091 25.0124 50.9218 25.2407C50.5841 26.6484 52.0249 28.3891 52.6927 29.5092C52.9404 29.9179 53.4431 30.705 54.0134 31.4922C55.9603 31.8421 57.8527 32.4503 59.6414 33.301V33.301C64.1438 35.8364 64.7816 39.6811 65.4495 43.6394C65.5545 44.2751 65.6596 44.9184 65.8171 45.645C65.8711 45.8936 65.8988 46.1473 65.8997 46.4018H75.985C75.985 36.2754 68.316 39.4919 64.6465 34.406C64.4664 34.1411 64.3839 33.9973 64.3839 33.8762C64.3839 33.7551 67.1078 29.9331 67.3855 29.5471L67.363 29.5168ZM75.955 54.7194V57.5197C75.9451 58.7645 75.45 59.9553 74.5766 60.8348C73.7032 61.7143 72.5217 62.2118 71.2875 62.2197H66.485C65.8872 64.909 64.9172 67.5 63.6035 69.9167L66.7852 73.1408C67.6572 74.0306 68.1463 75.2312 68.1463 76.4823C68.1463 77.7333 67.6572 78.934 66.7852 79.8237L62.8906 83.7517C62.0104 84.6349 60.8192 85.1307 59.5776 85.1307C58.336 85.1307 57.1449 84.6349 56.2646 83.7517L53.3456 80.8076C50.8926 82.3474 48.2274 83.5129 45.4364 84.2663V88.2775C45.4325 89.5288 44.9379 90.7278 44.0606 91.6126C43.1833 92.4974 41.9946 92.9962 40.754 93.0002H35.2686C34.0279 92.9962 32.8392 92.4974 31.9619 91.6126C31.0847 90.7278 30.5901 89.5288 30.5861 88.2775V84.3193C27.7665 83.588 25.0723 82.4322 22.5944 80.8908L19.7504 83.7517C18.8714 84.6344 17.6816 85.13 16.4412 85.13C15.2008 85.13 14.0109 84.6344 13.1319 83.7517L9.22986 79.8237C8.3578 78.934 7.86873 77.7333 7.86873 76.4823C7.86873 75.2312 8.3578 74.0306 9.22986 73.1408L12.299 70.0529C10.9464 67.5974 9.94834 64.9597 9.33491 62.2197H4.72749C3.49072 62.2157 2.30538 61.72 1.42875 60.8401C0.552106 59.9602 0.0548959 58.7671 0.0450237 57.5197V51.9419C0.0473635 51.4266 0.133554 50.9153 0.300158 50.4282H19.3377C19.1474 51.5278 19.052 52.642 19.0525 53.7583C19.0525 54.0913 19.0525 54.4167 19.0525 54.7422C19.0525 55.0676 19.0525 55.4006 19.0525 55.726C19.0525 60.7663 21.0377 65.6 24.5713 69.164C28.105 72.728 32.8976 74.7302 37.8949 74.7302C42.8923 74.7302 47.6849 72.728 51.2186 69.164C54.7522 65.6 56.7374 60.7663 56.7374 55.726C56.7374 55.4006 56.7374 55.0676 56.7374 54.7422C56.7374 54.4167 56.7374 54.0913 56.7374 53.7583C56.7379 52.642 56.6425 51.5278 56.4522 50.4282H75.6923C75.8645 50.914 75.9533 51.4259 75.955 51.9419V54.7194Z" fill="#515151"/>
</g>
<defs>
<clipPath id="clip0_898_2757">
<rect width="76" height="93" fill="white"/>
</clipPath>
</defs>
</svg>
