<svg width="108" height="81" viewBox="0 0 108 81" fill="none" xmlns="http://www.w3.org/2000/svg">
<path fill-rule="evenodd" clip-rule="evenodd" d="M98.3408 66.9621L92.5488 72.773C91.0283 74.2985 88.5234 74.2985 87.0029 72.773L82.3359 68.0908C79.9277 69.3782 77.3438 70.3658 74.6191 71.0007V77.0673C74.6191 79.2276 72.8525 81 70.6992 81H62.5078C60.3545 81 58.5879 79.2276 58.5879 77.0673V70.4451C55.916 69.6339 53.3936 68.4788 51.082 67.015L46.8018 71.3093C45.2812 72.8348 42.7764 72.8348 41.2559 71.3093L38.6367 68.6904L38.707 68.611L50.1943 55.4197C54.3955 60.3576 60.6533 63.4967 67.6318 63.4967C80.2881 63.4967 90.5537 53.1976 90.5537 40.5088C90.5537 27.8112 80.2881 17.5121 67.6318 17.5121C61.2949 17.5121 55.5557 20.0957 51.4072 24.2665L47.1797 24.1078L36.4834 14.5493C36.6152 14.3641 36.7559 14.1966 36.9141 14.0291L42.7061 8.21816C44.2266 6.69268 46.7314 6.69268 48.252 8.21816L52.9189 12.9004C55.3271 11.6042 57.9111 10.6166 60.6357 9.99053V3.92391C60.6533 1.77237 62.4199 0 64.5732 0H72.7559C74.9092 0 76.6758 1.77237 76.6758 3.93272V10.5549C79.3477 11.3661 81.8701 12.53 84.1816 13.985L88.4619 9.69072C89.9824 8.16525 92.4873 8.16525 94.0078 9.69072L99.7998 15.5016C101.32 17.0271 101.32 19.5402 99.7998 21.0656L95.1328 25.7479C96.4248 28.1639 97.4092 30.7564 98.0332 33.4899H104.08C106.225 33.4899 108 35.2622 108 37.4226V45.6408C108 47.8011 106.233 49.5735 104.08 49.5735H97.4883C96.6797 52.2541 95.5283 54.7848 94.0693 57.1039L98.3496 61.3981C99.8701 62.9236 99.8701 65.4278 98.3408 66.9621ZM67.7021 33.0314C71.8154 33.0314 75.1465 36.3733 75.1465 40.5C75.1465 44.6267 71.8154 47.9687 67.7021 47.9687C63.5889 47.9687 60.2578 44.6267 60.2578 40.5C60.2578 36.3733 63.5977 33.0314 67.7021 33.0314ZM52.8574 40.0415L32.6338 63.2763L31.957 52.3775C18.1318 50.3935 7.54102 54.2028 0 65.1368C0.0878906 43.6215 14.0273 32.37 30.6035 30.6417L29.9092 19.5225L52.8574 40.0415Z" fill="#515151"/>
</svg>
