<svg width="80" height="93" viewBox="0 0 80 93" fill="none" xmlns="http://www.w3.org/2000/svg">
<g clip-path="url(#clip0_898_2736)">
<path fill-rule="evenodd" clip-rule="evenodd" d="M74.7921 65.8445L76.945 68.0015C77.0814 68.1353 77.1897 68.2949 77.2636 68.471C77.3376 68.6471 77.3757 68.8361 77.3757 69.027C77.3757 69.2179 77.3376 69.4069 77.2636 69.583C77.1897 69.7591 77.0814 69.9187 76.945 70.0525L75.2166 71.7857C75.6998 72.6906 76.0617 73.655 76.2931 74.6541H78.5673C78.9533 74.6541 79.3235 74.8072 79.5965 75.0797C79.8695 75.3522 80.0228 75.7218 80.0228 76.1072V79.1345C80.0228 79.5206 79.8697 79.891 79.597 80.1647C79.3242 80.4385 78.954 80.5932 78.5673 80.5952H76.1187C75.8205 81.5725 75.3948 82.5063 74.8527 83.3728L76.4371 84.9546C76.7093 85.2282 76.8621 85.5982 76.8621 85.9839C76.8621 86.3696 76.7093 86.7396 76.4371 87.0132L74.2917 89.2004C74.0176 89.4722 73.647 89.6247 73.2607 89.6247C72.8745 89.6247 72.5038 89.4722 72.2298 89.2004L70.5013 87.4749C69.5815 87.957 68.603 88.3182 67.5903 88.5496V90.8201C67.5883 91.2049 67.4343 91.5733 67.1618 91.8454C66.8893 92.1175 66.5202 92.2712 66.1348 92.2732H63.1025C62.7158 92.2732 62.3448 92.1204 62.0706 91.8481C61.7964 91.5758 61.6414 91.2062 61.6394 90.8201V88.3755C60.6573 88.0766 59.7192 87.6491 58.8497 87.104L57.2653 88.6934C56.9912 88.9651 56.6206 89.1176 56.2343 89.1176C55.848 89.1176 55.4774 88.9651 55.2033 88.6934L53.0655 86.5061C52.9301 86.3718 52.8226 86.212 52.7492 86.036C52.6758 85.86 52.6381 85.6712 52.6381 85.4806C52.6381 85.29 52.6758 85.1012 52.7492 84.9252C52.8226 84.7492 52.9301 84.5894 53.0655 84.4551L54.794 82.7219C54.3141 81.8156 53.9523 80.8516 53.7175 79.8535H51.4432C51.0658 79.8399 50.7083 79.681 50.4454 79.4101C50.1826 79.1393 50.0349 78.7775 50.0332 78.4004V75.3731C50.0352 74.9876 50.1889 74.6183 50.4613 74.345C50.7336 74.0717 51.1026 73.9163 51.4887 73.9124H53.8994C54.2009 72.9374 54.6291 72.0062 55.173 71.1423L53.581 69.5606C53.3088 69.2869 53.1561 68.9169 53.1561 68.5313C53.1561 68.1456 53.3088 67.7756 53.581 67.502L55.7416 65.3525C55.8761 65.2173 56.0362 65.11 56.2125 65.0367C56.3887 64.9635 56.5778 64.9258 56.7687 64.9258C56.9597 64.9258 57.1488 64.9635 57.325 65.0367C57.5013 65.11 57.6614 65.2173 57.7959 65.3525L59.5319 67.0781C60.4396 66.5986 61.4052 66.2375 62.4051 66.0034V63.7329C62.4071 63.3481 62.561 62.9797 62.8336 62.7076C63.1061 62.4355 63.4752 62.2818 63.8606 62.2798H66.8929C67.2783 62.2818 67.6474 62.4355 67.9199 62.7076C68.1924 62.9797 68.3464 63.3481 68.3484 63.7329V66.1775C69.3289 66.4743 70.2648 66.902 71.1305 67.449L72.7301 65.8445C73.0051 65.5746 73.3754 65.4233 73.7611 65.4233C74.1468 65.4233 74.517 65.5746 74.7921 65.8445V65.8445ZM45.6818 88.5496C46.2137 88.6372 46.697 88.9105 47.0458 89.3208C47.3945 89.7311 47.5859 90.2517 47.5859 90.7898C47.5859 91.3279 47.3945 91.8485 47.0458 92.2588C46.697 92.6692 46.2137 92.9425 45.6818 93.03H5.22321C4.53538 93.03 3.85432 92.8944 3.21913 92.6309C2.58394 92.3675 2.00713 91.9813 1.52181 91.4947C1.0365 91.0081 0.65224 90.4305 0.391092 89.7953C0.129945 89.16 -0.0029454 88.4794 4.95162e-05 87.7927V5.18409C-0.00245455 4.50262 0.130233 3.8274 0.390457 3.19739C0.650681 2.56739 1.03329 1.99506 1.51621 1.51344C2.00055 1.02755 2.57737 0.643318 3.2127 0.383362C3.84803 0.123406 4.52904 -0.0070195 5.21563 -0.000236688H69.3794C70.764 0.00176532 72.0914 0.551802 73.0705 1.5293C74.0496 2.50679 74.6005 3.83198 74.6025 5.21436V51.6387C74.6025 51.6841 74.6025 51.7295 74.6025 51.7749C74.5253 52.3161 74.2551 52.8114 73.8414 53.1696C73.4278 53.5279 72.8986 53.7251 72.3511 53.7251C71.8035 53.7251 71.2743 53.5279 70.8607 53.1696C70.4471 52.8114 70.1768 52.3161 70.0996 51.7749V5.21436C70.0968 5.02212 70.021 4.83812 69.8873 4.69971C69.7499 4.5635 69.5654 4.48497 69.3718 4.48023H5.22321C5.12192 4.47354 5.02037 4.48853 4.92536 4.5242C4.83035 4.55987 4.74407 4.61539 4.67229 4.68705C4.60051 4.75871 4.5449 4.84485 4.50917 4.93971C4.47345 5.03457 4.45843 5.13595 4.46513 5.23707V87.7927C4.46974 87.9823 4.5455 88.1633 4.67739 88.2998C4.81672 88.4378 5.00422 88.5165 5.20047 88.5193H45.6818V88.5496ZM14.4035 77.6965V72.656H36.2589V77.6738H14.4111L14.4035 77.6965ZM56.3253 45.2283V49.8526H49.7452V45.2283H56.3253ZM44.5523 41.1565V49.8526H37.9646V41.1565H44.5523ZM32.7794 28.699V49.8904H26.1917V28.699H32.7794ZM20.9988 19.9878V49.8526H14.4035V19.9878H20.9988ZM52.3075 22.1826L62.2459 22.2205C62.2396 23.5295 61.9746 24.8244 61.4659 26.031C60.9573 27.2375 60.215 28.332 59.2818 29.2515C58.8361 29.6881 58.3514 30.0833 57.8338 30.4321L52.3075 22.1826ZM51.2916 20.2149L50.7913 9.61158C50.7872 9.51044 50.823 9.41172 50.891 9.33669C50.9591 9.26166 51.054 9.21633 51.1552 9.21046H51.5494C54.3596 9.17797 57.0765 10.217 59.1458 12.1156C61.2152 14.0142 62.4811 16.6293 62.6856 19.4277C62.6899 19.5285 62.6554 19.627 62.5891 19.703C62.5228 19.7791 62.4298 19.8268 62.3293 19.8364L51.7162 20.5933C51.6667 20.5974 51.617 20.5916 51.5699 20.5762C51.5228 20.5609 51.4792 20.5362 51.4417 20.5038C51.4043 20.4713 51.3737 20.4317 51.3519 20.3873C51.33 20.3429 51.3172 20.2945 51.3144 20.2451L51.2916 20.2149ZM51.9208 9.95972L52.4136 19.4277L61.3286 18.6255C61.1353 16.3232 60.0469 14.1879 58.2963 12.6768C56.4314 10.9587 54.703 9.93702 51.9891 9.96729L51.9208 9.95972ZM50.109 21.721L55.4156 30.9316C54.0568 31.7157 52.5412 32.1903 50.9773 32.3214C49.4133 32.4525 47.8397 32.237 46.3689 31.6902C44.8981 31.1434 43.5666 30.2789 42.4695 29.1584C41.3724 28.038 40.5369 26.6893 40.0227 25.2089C39.5085 23.7285 39.3284 22.153 39.4952 20.595C39.662 19.037 40.1716 17.5351 40.9876 16.1966C41.8035 14.8582 42.9057 13.7163 44.2152 12.8527C45.5247 11.9891 47.0092 11.425 48.5625 11.2009L50.0787 21.721H50.109ZM14.4035 64.2022V59.1465H45.3786V64.1643L14.4035 64.2022ZM64.9901 71.3013C66.1731 71.3013 67.3295 71.6515 68.3131 72.3076C69.2967 72.9638 70.0633 73.8964 70.5161 74.9875C70.9688 76.0787 71.0872 77.2793 70.8564 78.4377C70.6256 79.596 70.056 80.66 69.2195 81.4952C68.383 82.3303 67.3172 82.899 66.157 83.1294C64.9967 83.3598 63.7941 83.2416 62.7012 82.7896C61.6083 82.3376 60.6741 81.5723 60.0169 80.5903C59.3597 79.6083 59.0089 78.4538 59.0089 77.2727C59.0089 75.689 59.639 74.1701 60.7607 73.0503C61.8824 71.9304 63.4038 71.3013 64.9901 71.3013V71.3013Z" fill="#515151"/>
</g>
<defs>
<clipPath id="clip0_898_2736">
<rect width="80" height="93" fill="white"/>
</clipPath>
</defs>
</svg>
