<svg width="91" height="95" viewBox="0 0 91 95" fill="none" xmlns="http://www.w3.org/2000/svg">
<path d="M44.3102 89.9129H5.7638C4.23627 89.9092 2.77235 89.3005 1.69205 88.2198L1.54525 88.0343C0.565215 86.9844 0.0138857 85.6052 0 84.1687L0 5.76742C0.000597291 5.01035 0.150348 4.26082 0.440686 3.56172C0.731025 2.86261 1.15625 2.22764 1.69205 1.69312L1.86976 1.54622C2.91852 0.564923 4.29711 0.0131429 5.73289 0L70.989 0C72.5164 0.00408109 73.98 0.613028 75.0601 1.69374C76.1401 2.77446 76.7487 4.23906 76.7528 5.76742V43.9591C75.1317 43.5076 73.4747 43.1972 71.8002 43.0314V5.76742C71.7817 5.56203 71.6891 5.3704 71.5399 5.22817C71.3907 5.08595 71.1949 5.00284 70.989 4.9943H5.7638C5.57882 4.99538 5.39945 5.05793 5.25386 5.17212L5.19205 5.23397C5.04039 5.3859 4.95438 5.59133 4.95254 5.80607V84.1455C4.95036 84.3288 5.01334 84.5069 5.13024 84.648L5.19978 84.7099C5.27182 84.7876 5.35906 84.8497 5.45609 84.8922C5.55312 84.9348 5.65786 84.9569 5.7638 84.9573H41.4978C42.2731 86.6962 43.2149 88.3558 44.3102 89.9129ZM65.8124 63.488H68.0452C68.2505 63.4868 68.4538 63.5265 68.6435 63.6048C68.8332 63.6831 69.0054 63.7985 69.1501 63.9441C69.4445 64.24 69.611 64.6398 69.6137 65.0574V73.2678H77.0232C77.433 73.2678 77.826 73.4307 78.1158 73.7207C78.4056 74.0107 78.5684 74.404 78.5684 74.814V77.1334C78.5609 77.5499 78.3952 77.948 78.1048 78.2467L78.043 78.3008C77.7577 78.5603 77.3856 78.7037 77 78.7028H64.9007C64.6957 78.7028 64.4992 78.6214 64.3543 78.4764C64.2094 78.3314 64.128 78.1347 64.128 77.9297V64.9414C64.1531 64.5644 64.3153 64.2096 64.5839 63.9441C64.7279 63.7971 64.8998 63.6803 65.0895 63.6006C65.2793 63.521 65.483 63.4801 65.6887 63.4802L65.8124 63.488ZM68.7638 50.5461C73.9039 50.5409 78.8866 52.3197 82.8628 55.5791C86.839 58.8385 89.5624 63.3769 90.5689 68.4206C91.5754 73.4644 90.8027 78.7013 88.3825 83.2388C85.9622 87.7762 82.0442 91.3334 77.2964 93.304C72.5485 95.2745 67.2646 95.5365 62.3453 94.0452C57.4261 92.5539 53.1759 89.4017 50.3192 85.1258C47.4626 80.85 46.1763 75.7151 46.6797 70.5965C47.183 65.4779 49.4448 60.6924 53.0795 57.0557C55.1375 54.9918 57.5822 53.3544 60.2735 52.2374C62.9649 51.1203 65.8501 50.5456 68.7638 50.5461V50.5461ZM81.3267 60.2022C78.4189 57.2939 74.5933 55.4844 70.5016 55.082C66.41 54.6797 62.3055 55.7095 58.8876 57.9959C55.4697 60.2822 52.9498 63.6838 51.7573 67.6208C50.5648 71.5579 50.7735 75.7869 52.3478 79.5873C53.9221 83.3877 56.7647 86.5242 60.3911 88.4626C64.0175 90.4009 68.2034 91.021 72.2355 90.2173C76.2676 89.4136 79.8965 87.2358 82.5038 84.0549C85.1111 80.874 86.5354 76.887 86.5342 72.773C86.5379 70.4382 86.0804 68.1257 85.1881 65.9684C84.2957 63.8111 82.9861 61.8515 81.3344 60.2022H81.3267ZM32.9989 64.4543C32.3501 64.3352 31.7637 63.9922 31.3414 63.4851C30.9192 62.978 30.688 62.3389 30.688 61.6789C30.688 61.0189 30.9192 60.3797 31.3414 59.8726C31.7637 59.3655 32.3501 59.0226 32.9989 58.9034H40.4007C41.0494 59.0226 41.6359 59.3655 42.0581 59.8726C42.4803 60.3797 42.7115 61.0189 42.7115 61.6789C42.7115 62.3389 42.4803 62.978 42.0581 63.4851C41.6359 63.9922 41.0494 64.3352 40.4007 64.4543H32.9989ZM16.0011 57.2799H22.9547C23.0814 57.268 23.2092 57.2828 23.3298 57.3233C23.4504 57.3638 23.5612 57.4291 23.6551 57.515C23.749 57.601 23.8238 57.7056 23.8749 57.8222C23.9259 57.9388 23.952 58.0648 23.9514 58.1921V65.1501C23.9514 65.3921 23.8554 65.6241 23.6844 65.7952C23.5134 65.9663 23.2815 66.0624 23.0397 66.0624H16.0861C15.8443 66.0624 15.6124 65.9663 15.4414 65.7952C15.2704 65.6241 15.1744 65.3921 15.1744 65.1501V58.1921C15.1744 58.0723 15.198 57.9537 15.2438 57.843C15.2896 57.7323 15.3568 57.6318 15.4414 57.5471C15.5261 57.4624 15.6266 57.3952 15.7372 57.3493C15.8478 57.3035 15.9664 57.2799 16.0861 57.2799H16.0011ZM16.0011 17.1244H22.9547C23.0814 17.1126 23.2092 17.1274 23.3298 17.1679C23.4504 17.2084 23.5612 17.2737 23.6551 17.3596C23.749 17.4455 23.8238 17.5502 23.8749 17.6668C23.9259 17.7834 23.952 17.9094 23.9514 18.0367V24.9947C23.9514 25.2367 23.8554 25.4687 23.6844 25.6398C23.5134 25.8109 23.2815 25.907 23.0397 25.907H16.0861C15.8443 25.907 15.6124 25.8109 15.4414 25.6398C15.2704 25.4687 15.1744 25.2367 15.1744 24.9947V18.0367C15.1744 17.7948 15.2704 17.5627 15.4414 17.3916C15.6124 17.2205 15.8443 17.1244 16.0861 17.1244H16.0011ZM32.9989 24.2912C32.3269 24.2264 31.7073 23.8999 31.2737 23.3821C30.8401 22.8644 30.6272 22.1968 30.681 21.5234C30.6271 20.8492 30.8397 20.1808 31.2732 19.6618C31.7066 19.1428 32.3263 18.8147 32.9989 18.748H60.4581C61.1307 18.8147 61.7503 19.1428 62.1838 19.6618C62.6172 20.1808 62.8298 20.8492 62.7759 21.5234C62.8297 22.1968 62.6169 22.8644 62.1833 23.3821C61.7497 23.8999 61.13 24.2264 60.4581 24.2912H32.9989ZM14.17 41.8254C14.045 41.6634 13.9534 41.4782 13.9005 41.2806C13.8475 41.0829 13.8344 40.8767 13.8617 40.6739C13.889 40.4711 13.9562 40.2758 14.0596 40.0992C14.1629 39.9226 14.3002 39.7683 14.4636 39.6452C14.772 39.347 15.1804 39.1747 15.6091 39.1618C16.0377 39.1489 16.4557 39.2965 16.7815 39.5756L18.404 41.2533L22.4603 37.1094C22.6151 36.9737 22.7963 36.8716 22.9926 36.8094C23.1888 36.7472 23.3957 36.7264 23.6004 36.7482C23.8051 36.77 24.003 36.8339 24.1818 36.936C24.3605 37.0381 24.5162 37.1761 24.6391 37.3413C24.947 37.641 25.132 38.045 25.1577 38.474C25.1835 38.9031 25.0481 39.3263 24.7781 39.6606L19.3698 45.1807C19.2144 45.3153 19.0331 45.4165 18.837 45.478C18.6409 45.5395 18.4343 45.56 18.23 45.5383C18.0257 45.5165 17.828 45.4529 17.6493 45.3515C17.4705 45.2501 17.3145 45.113 17.1909 44.9487L17.0673 44.8018C16.9807 44.7434 16.9004 44.676 16.8278 44.6008L14.17 41.8254ZM33.0221 43.905C32.3494 43.8383 31.7298 43.5102 31.2964 42.9912C30.8629 42.4722 30.6503 41.8038 30.7042 41.1296C30.6503 40.4554 30.8629 39.7869 31.2964 39.2679C31.7298 38.7489 32.3494 38.4208 33.0221 38.3541H60.4581C61.1307 38.4208 61.7503 38.7489 62.1838 39.2679C62.6172 39.7869 62.8298 40.4554 62.7759 41.1296C62.8298 41.8038 62.6172 42.4722 62.1838 42.9912C61.7503 43.5102 61.1307 43.8383 60.4581 43.905H33.0221Z" fill="#515151"/>
</svg>
