<svg width="104" height="106" viewBox="0 0 104 106" fill="none" xmlns="http://www.w3.org/2000/svg">
<path d="M76.5072 29.7607C78.3412 31.0785 80.0651 32.5441 81.6621 34.1428C86.1193 38.6232 89.5139 44.0542 91.5939 50.0325C89.3602 48.9288 86.9093 48.3394 84.42 48.3072H83.8701C82.1433 44.7511 79.8378 41.5092 77.0485 38.7148C76.4299 38.0937 75.7855 37.4899 75.124 36.9205C76.1186 35.6355 76.6569 34.0536 76.6533 32.4262C76.6555 31.5213 76.6068 30.6169 76.5072 29.7176V29.7607ZM63.8606 53.0517C64.8392 53.2282 65.7394 53.7043 66.438 54.4147C67.3557 55.3272 67.8749 56.5684 67.8814 57.8652V69.0794C67.8768 70.3866 67.3576 71.639 66.437 72.5634C65.5164 73.4878 64.269 74.0091 62.967 74.0136H62.7179L63.1389 80.0003C63.1477 80.195 63.0833 80.3859 62.9584 80.5351C62.8291 80.684 62.6465 80.7756 62.4503 80.7901C62.254 80.8047 62.06 80.7409 61.9103 80.6127L54.2639 73.8238H44.229L49.1863 68.7602H59.6937C60.7989 68.7556 61.8574 68.3122 62.6381 67.5267C63.4188 66.7412 63.8583 65.6775 63.8606 64.5678C63.8606 61.0224 64.1355 56.4332 63.8606 53.0086V53.0517ZM42.1584 59.1246C41.9169 59.1246 41.6853 59.0283 41.5145 58.8568C41.3437 58.6853 41.2477 58.4527 41.2477 58.2102C41.2477 57.9677 41.3437 57.7351 41.5145 57.5637C41.6853 57.3922 41.9169 57.2958 42.1584 57.2958H51.0077C51.2492 57.2958 51.4809 57.3922 51.6516 57.5637C51.8224 57.7351 51.9184 57.9677 51.9184 58.2102C51.9184 58.4527 51.8224 58.6853 51.6516 58.8568C51.4809 59.0283 51.2492 59.1246 51.0077 59.1246H42.1584ZM42.1584 54.1472C41.9169 54.1472 41.6853 54.0509 41.5145 53.8794C41.3437 53.7079 41.2477 53.4754 41.2477 53.2329C41.2477 52.9903 41.3437 52.7578 41.5145 52.5863C41.6853 52.4148 41.9169 52.3185 42.1584 52.3185H54.702C54.9436 52.3185 55.1752 52.4148 55.346 52.5863C55.5168 52.7578 55.6127 52.9903 55.6127 53.2329C55.6127 53.4754 55.5168 53.7079 55.346 53.8794C55.1752 54.0509 54.9436 54.1472 54.702 54.1472H42.1584ZM39.6841 45.426H57.0217C57.6893 45.4265 58.3502 45.5593 58.9665 45.8169C59.5827 46.0745 60.1423 46.4517 60.613 46.927C61.5674 47.8826 62.1051 49.1795 62.1079 50.5328V61.747C62.1063 62.4158 61.9735 63.0778 61.717 63.695C61.4605 64.3122 61.0853 64.8726 60.613 65.3442V65.3442C60.1416 65.8179 59.5817 66.1936 58.9655 66.4497C58.3492 66.7058 57.6887 66.8372 57.0217 66.8365H48.3787L40.7838 73.3925C40.648 73.5101 40.4807 73.5848 40.3028 73.6072C40.1249 73.6297 39.9443 73.5989 39.7838 73.5188C39.6232 73.4386 39.4898 73.3127 39.4002 73.1567C39.3107 73.0007 39.2689 72.8217 39.2803 72.642L39.6841 66.8365C39.0173 66.8432 38.3558 66.717 37.7379 66.4653C37.12 66.2136 36.5579 65.8413 36.0843 65.3701V65.3701C35.6119 64.8985 35.2368 64.3381 34.9802 63.7209C34.7237 63.1036 34.5909 62.4417 34.5893 61.7729V50.5587C34.5873 49.8842 34.7184 49.216 34.975 48.5927C35.2316 47.9694 35.6086 47.4033 36.0843 46.927V46.927C36.5539 46.4528 37.1121 46.0761 37.7268 45.8185C38.3415 45.561 39.0008 45.4276 39.6669 45.426H39.6841ZM57.0217 47.2635H39.6841C39.2564 47.263 38.8328 47.3473 38.4377 47.5116C38.0426 47.6759 37.6837 47.917 37.3816 48.221C36.7733 48.8357 36.4307 49.6663 36.4279 50.5328V61.747C36.4279 62.6141 36.771 63.4457 37.3816 64.0588C37.9923 64.6719 38.8205 65.0164 39.6841 65.0164H40.7151C40.8355 65.023 40.9534 65.0535 41.062 65.1062C41.1706 65.1589 41.2677 65.2328 41.3476 65.3234C41.4275 65.4141 41.4887 65.5198 41.5276 65.6345C41.5665 65.7491 41.5824 65.8703 41.5742 65.9912L41.2392 70.6062L47.3907 65.301C47.5621 65.1304 47.7936 65.0344 48.035 65.0336H57.0217C57.4493 65.0336 57.8728 64.9491 58.2678 64.7848C58.6629 64.6205 59.0218 64.3797 59.3242 64.0761C59.6266 63.7725 59.8664 63.4121 60.03 63.0154C60.1937 62.6187 60.2779 62.1936 60.2779 61.7643V50.5501C60.2779 50.1207 60.1937 49.6956 60.03 49.2989C59.8664 48.9023 59.6266 48.5419 59.3242 48.2383C59.0218 47.9347 58.6629 47.6939 58.2678 47.5296C57.8728 47.3653 57.4493 47.2807 57.0217 47.2807V47.2635ZM81.748 75.5922C81.5803 75.4203 81.4225 75.2389 81.2755 75.0488C80.9318 74.5657 80.6054 74.0654 80.2875 73.565L78.7152 71.0548C78.1977 70.3908 77.8816 69.5912 77.8045 68.7516C77.7959 68.4022 77.8931 68.0584 78.0833 67.7657C78.2736 67.473 78.5479 67.2453 78.8699 67.1126C78.8183 66.1723 78.7754 65.2148 78.7754 64.2659C78.7754 63.6966 78.7754 63.1358 78.7754 62.5406C78.8337 62.1856 78.9228 61.8363 79.0417 61.4969C79.4833 60.0712 80.4352 58.8604 81.7137 58.0981C82.1665 57.8104 82.6508 57.5759 83.157 57.3994C84.0763 57.0543 83.6296 55.6741 84.6348 55.6741C86.9888 55.6051 90.8464 57.6236 92.3671 59.2626C93.3234 60.3316 93.8687 61.708 93.905 63.1445L93.7589 67.2851C93.9676 67.3351 94.1583 67.4421 94.31 67.5944C94.4617 67.7467 94.5683 67.9382 94.6181 68.1477C94.7143 68.901 94.5603 69.6651 94.1799 70.3216V70.3216C94.1799 70.3216 94.1799 70.3216 94.1799 70.3906L92.3413 73.3235C91.9431 74.0068 91.5101 74.669 91.044 75.3076C90.4856 76.0581 90.0216 75.9287 90.5028 76.6446C93.9394 81.3719 104 78.3699 104 87.7984H68.4055C68.4055 78.3785 78.4747 81.3719 81.9027 76.6446C82.2979 76.058 82.1948 76.1012 81.748 75.6267V75.5922ZM13.3512 75.5922C13.1818 75.4243 13.0266 75.2425 12.8872 75.0488C12.535 74.5657 12.2085 74.0654 11.8906 73.565L10.3098 71.0203C9.80685 70.3525 9.50832 69.5523 9.45064 68.7171C9.43443 68.3662 9.5286 68.0191 9.71981 67.7249C9.91101 67.4307 10.1896 67.2044 10.516 67.0781C10.4558 66.1378 10.4215 65.1803 10.4215 64.2314C10.4215 63.6621 10.4215 63.1013 10.4215 62.5061C10.4516 62.1536 10.512 61.8044 10.6019 61.4623C11.0435 60.0367 11.9954 58.8259 13.2739 58.0636C13.7297 57.7757 14.2168 57.5413 14.7258 57.3649C15.6365 57.0198 15.1983 55.6396 16.2036 55.6396C18.549 55.5706 22.4152 57.5891 23.9359 59.2281C24.8961 60.2947 25.442 61.6726 25.4738 63.11L25.3535 67.2851C25.5621 67.3351 25.7529 67.4421 25.9046 67.5944C26.0562 67.7467 26.1629 67.9382 26.2126 68.1477C26.2889 68.8808 26.1358 69.6195 25.7745 70.2612V70.2612C25.7745 70.2612 25.7745 70.2612 25.7745 70.3302L23.9359 73.3235C23.5376 74.0068 23.1046 74.669 22.6386 75.3076C22.0801 76.0581 21.6248 75.9287 22.0973 76.6446C25.5339 81.3719 35.6031 78.3699 35.6031 87.7984H0C0 78.3785 10.0778 81.3719 13.4972 76.6446C13.8924 76.058 13.7893 76.1012 13.3512 75.6267V75.5922ZM47.6398 21.1861C46.7033 20.3235 45.5263 19.6334 45.3631 17.8909H45.2686C45.0339 17.8858 44.8039 17.8236 44.5984 17.7097C44.2703 17.507 44.0146 17.205 43.8682 16.8471C43.5331 16.0707 43.2667 14.0177 44.1173 13.3966L43.9541 13.2931V13.0688C43.9541 12.6547 43.9541 12.1544 43.9025 11.6368C43.9025 9.70453 43.8338 7.37543 42.2959 6.90961L41.6344 6.70258L42.0983 6.185C43.2357 4.73493 44.5294 3.4157 45.9559 2.2514C47.2226 1.15897 48.7452 0.407945 50.3805 0.0689503C51.1496 -0.0554484 51.9364 -0.0111435 52.6869 0.198819C53.4373 0.408782 54.1336 0.779422 54.7278 1.28526C55.1571 1.63734 55.5487 2.03341 55.8962 2.46706C56.5787 2.54728 57.237 2.76982 57.8288 3.1204C58.4206 3.47098 58.9329 3.94187 59.3328 4.50287C59.8454 5.19607 60.2296 5.97625 60.4669 6.80609C60.7116 7.64556 60.8133 8.5205 60.7676 9.39398C60.7227 10.9819 60.0776 12.4931 58.9634 13.6209C59.1606 13.6215 59.3549 13.6688 59.5304 13.7589C59.7981 13.9453 59.9932 14.2191 60.0825 14.5336C60.1718 14.8482 60.1497 15.1841 60.0202 15.4842C59.8569 16.0104 59.6421 16.6228 59.4445 17.1318C59.1954 17.8219 58.8431 17.9513 58.1558 17.8823C58.1558 19.6075 56.8929 20.2631 55.8447 21.2465C58.4221 26.06 69.3076 22.8855 69.3076 32.4607H34.0824C34.0824 22.8855 44.7273 26.1894 47.5969 21.1861H47.6398ZM80.15 95.0963C72.4397 102.113 62.4059 105.999 52 105.999C41.5941 105.999 31.5603 102.113 23.85 95.0963H34.9588C40.1838 97.9716 46.046 99.4788 52.0043 99.4788C57.9626 99.4788 63.8248 97.9716 69.0498 95.0963H80.15ZM12.8872 48.7817C15.7391 41.3818 20.6106 34.9389 26.9429 30.192C26.8742 30.9051 26.8398 31.6728 26.8398 32.4952C26.8301 34.2346 27.4395 35.9202 28.5581 37.2483C27.9997 37.74 27.4498 38.2576 26.9257 38.7838C24.0125 41.7061 21.6285 45.1155 19.8807 48.8593C18.6257 48.5008 17.328 48.315 16.0231 48.3072C14.9562 48.3137 13.8952 48.4676 12.8701 48.7644L12.8872 48.7817Z" fill="#515151"/>
</svg>
