<svg width="73" height="85" viewBox="0 0 73 85" fill="none" xmlns="http://www.w3.org/2000/svg">
<g clip-path="url(#clip0_898_2740)">
<path fill-rule="evenodd" clip-rule="evenodd" d="M53.8681 46.7265C58.294 46.7286 62.5824 48.2652 66.0025 51.0746C69.4226 53.884 71.763 57.7924 72.6249 62.1339C73.4867 66.4755 72.8168 70.9816 70.7292 74.8845C68.6416 78.7875 65.2654 81.8459 61.1759 83.5386C57.0864 85.2314 52.5366 85.4538 48.3015 84.168C44.0664 82.8822 40.4081 80.1677 37.9498 76.487C35.4915 72.8062 34.3853 68.387 34.8197 63.9821C35.254 59.5772 37.2021 55.4591 40.3319 52.3295C42.1086 50.5508 44.2188 49.1403 46.5416 48.1788C48.8645 47.2174 51.3542 46.7238 53.8681 46.7265ZM61.4074 70.5151C61.5308 70.5097 61.6535 70.4935 61.774 70.4667C61.8957 70.4446 62.0142 70.4074 62.1268 70.356C62.5037 70.2059 62.8283 69.9486 63.0605 69.6159C63.2984 69.2841 63.4332 68.8895 63.4479 68.4815V68.3362C63.4377 67.8712 63.2752 67.4225 62.9853 67.0588C62.6954 66.6952 62.2942 66.4368 61.8432 66.3232C61.7088 66.2942 61.5724 66.2757 61.4351 66.2679C60.6327 66.2679 56.4273 66.1987 55.5627 66.1503L54.8226 66.1088L55.0578 58.9909C55.068 58.855 55.068 58.7186 55.0578 58.5828C55.0315 58.4509 54.9945 58.3213 54.9471 58.1954C54.8974 58.0672 54.8349 57.9444 54.7604 57.8288C54.685 57.7129 54.5994 57.6041 54.5045 57.5037C54.4071 57.4087 54.3031 57.3209 54.1932 57.2408C54.0814 57.1603 53.9607 57.093 53.8335 57.0402C53.7081 56.9861 53.5786 56.9422 53.4462 56.9088C53.3163 56.8816 53.1845 56.8654 53.0519 56.8604H52.9828C52.7153 56.858 52.4499 56.9073 52.2012 57.0056C51.946 57.1075 51.7116 57.2552 51.5095 57.4414L51.4611 57.4898C51.3773 57.5798 51.2988 57.6745 51.2259 57.7734C51.1546 57.8849 51.09 58.0003 51.0322 58.1193C50.9248 58.3687 50.8662 58.6364 50.8593 58.9079L50.4927 68.0733C50.4822 68.2092 50.4822 68.3456 50.4927 68.4815C50.5158 68.6164 50.5529 68.7485 50.6034 68.8757C50.6478 69.005 50.7082 69.1281 50.7832 69.2424C50.852 69.3591 50.9332 69.4681 51.0253 69.5675C51.1096 69.6614 51.2048 69.745 51.3089 69.8165C51.4133 69.8854 51.5219 69.9478 51.634 70.0033C51.7564 70.0607 51.8837 70.107 52.0144 70.1416C52.1396 70.1697 52.2668 70.1882 52.3948 70.197C53.045 70.197 53.7229 70.273 54.4145 70.3215C55.6042 70.4045 60.1555 70.4875 61.2483 70.4598L61.4074 70.5151ZM61.8847 39.7677V42.1956C60.4282 41.7107 58.9302 41.361 57.4095 41.1511V39.7677V25.0199H38.6719C38.072 25.0199 37.4967 24.7816 37.0725 24.3574C36.6484 23.9332 36.4101 23.3579 36.4101 22.758V4.48243H4.50976V72.6318H29.8322V72.6941V72.7633V72.8048V72.8601V72.9155V72.9777V73.0331V73.0746V73.1368V73.1783V73.2267V73.289V73.3443V73.3858V73.4481L29.8737 73.5657V73.6279V73.6764L29.929 73.8562V73.9115V73.96V74.0015V74.0499L29.9774 74.1744V74.2159V74.2851L30.0189 74.4027V74.4511C30.102 74.6655 30.185 74.88 30.2749 75.0944L30.3925 75.3711L30.51 75.6478L30.6622 75.9867C30.7867 76.2634 30.9181 76.5332 31.0496 76.803H4.0325C2.96381 76.7998 1.93961 76.3747 1.18277 75.6201C0.495825 74.9467 0.0757091 74.0474 0 73.0884L0 4.03281C0.00182879 2.96381 0.427267 1.93911 1.18311 1.18321C1.93896 0.427311 2.96358 0.00184073 4.0325 1.18128e-05H38.6719C39.0043 -0.00107099 39.3328 0.072299 39.6333 0.214739C39.9337 0.357178 40.1984 0.565074 40.408 0.823173L60.2592 20.1917C60.7305 20.3247 61.1452 20.6083 61.44 20.9993C61.7348 21.3903 61.8934 21.8671 61.8916 22.3568V39.7677H61.8847ZM40.9198 7.88575L54.3938 20.5168H40.9198V7.88575ZM13.0451 38.1628C13.1901 37.9954 13.3682 37.8598 13.5682 37.7645C13.7682 37.6693 13.9857 37.6165 14.2071 37.6095H40.6916C40.9185 37.61 41.1426 37.659 41.349 37.7532C41.5554 37.8475 41.7392 37.9848 41.8882 38.1559C42.1943 38.5093 42.3628 38.9612 42.3628 39.4287C42.3628 39.8963 42.1943 40.3481 41.8882 40.7015C41.7401 40.8724 41.5575 41.01 41.3525 41.1054C41.1475 41.2007 40.9246 41.2517 40.6985 41.2549H14.2348C14.008 41.254 13.784 41.2047 13.5776 41.1105C13.3713 41.0163 13.1874 40.8792 13.0382 40.7084C12.7283 40.3541 12.5575 39.8994 12.5575 39.4287C12.5575 38.958 12.7283 38.5033 13.0382 38.149L13.0451 38.1628ZM13.0451 26.1821C13.1936 26.0121 13.3764 25.8756 13.5814 25.7814C13.7865 25.6872 14.0091 25.6375 14.2348 25.6356H29.8875C30.1103 25.6367 30.3304 25.684 30.534 25.7745C30.7376 25.865 30.9202 25.9967 31.0703 26.1613C31.3807 26.5167 31.5517 26.9726 31.5517 27.4445C31.5517 27.9163 31.3807 28.3722 31.0703 28.7276C30.9222 28.8985 30.7396 29.0361 30.5346 29.1315C30.3296 29.2268 30.1067 29.2778 29.8806 29.281H14.2348C14.008 29.2801 13.784 29.2309 13.5776 29.1367C13.3713 29.0424 13.1874 28.9054 13.0382 28.7345C12.7278 28.3791 12.5568 27.9233 12.5568 27.4514C12.5568 26.9795 12.7278 26.5236 13.0382 26.1682L13.0451 26.1821ZM32.3292 53.2634H14.2555C14.0276 53.263 13.8024 53.214 13.5949 53.1198C13.3874 53.0256 13.2023 52.8882 13.052 52.7169C12.7432 52.36 12.5759 51.9022 12.5817 51.4303C12.5773 50.9615 12.7474 50.5078 13.0589 50.1575C13.2084 49.9864 13.3922 49.8488 13.5983 49.7534C13.8045 49.6581 14.0284 49.6072 14.2555 49.6041H34.9437C33.9636 50.7425 33.0885 51.9672 32.3292 53.2634ZM13.0589 62.1106C13.2084 61.9396 13.3922 61.8019 13.5983 61.7065C13.8045 61.6112 14.0284 61.5603 14.2555 61.5572H29.2789C29.0674 62.7662 28.9471 63.9894 28.9192 65.2165H14.2555C14.0276 65.2161 13.8024 65.1672 13.5949 65.0729C13.3874 64.9787 13.2023 64.8413 13.052 64.67C12.7442 64.3152 12.5769 63.86 12.5817 63.3903C12.5762 62.9192 12.7464 62.463 13.0589 62.1106ZM64.935 54.8198C62.3814 52.2699 59.023 50.684 55.4316 50.332C51.8403 49.98 48.2379 50.8837 45.2379 52.8892C42.2378 54.8947 40.0256 57.8781 38.9777 61.3315C37.9298 64.7848 38.1111 68.4946 39.4907 71.8293C40.8704 75.164 43.363 77.9174 46.5443 79.6208C49.7256 81.3241 53.3989 81.8722 56.9389 81.1716C60.4788 80.471 63.6665 78.5651 65.9593 75.7784C68.2521 72.9916 69.5083 69.4963 69.5139 65.8875C69.5206 63.8315 69.1193 61.7946 68.3333 59.8948C67.5473 57.995 66.3922 56.27 64.935 54.8198Z" fill="#515151"/>
</g>
<defs>
<clipPath id="clip0_898_2740">
<rect width="73" height="85" fill="white"/>
</clipPath>
</defs>
</svg>
